<svg width="1325" height="674" viewBox="0 0 1325 674" fill="none" xmlns="http://www.w3.org/2000/svg">
<g clip-path="url(#clip0_38_368)">
<path d="M890.657 153.136H887.12V56.1392C887.12 41.2502 881.212 26.9709 870.694 16.4428C860.177 5.91467 845.913 1.85655e-05 831.04 3.56295e-10H625.753C618.389 -2.62641e-05 611.096 1.45203 604.292 4.27326C597.488 7.09449 591.306 11.2296 586.099 16.4426C580.891 21.6556 576.76 27.8443 573.942 34.6554C571.123 41.4665 569.673 48.7666 569.673 56.1389V588.271C569.673 595.644 571.123 602.944 573.942 609.755C576.76 616.566 580.891 622.755 586.098 627.968C591.306 633.181 597.488 637.316 604.292 640.137C611.096 642.958 618.389 644.411 625.753 644.411H831.039C838.404 644.411 845.696 642.958 852.5 640.137C859.304 637.316 865.487 633.181 870.694 627.968C875.902 622.755 880.033 616.566 882.851 609.755C885.669 602.944 887.12 595.644 887.12 588.272V222.18H890.657V153.136Z" fill="#3F3D56"/>
<path d="M832.88 15.9332H806.083C807.316 18.9576 807.786 22.2389 807.453 25.4882C807.12 28.7374 805.994 31.8548 804.174 34.5658C802.354 37.2768 799.896 39.4981 797.016 41.0341C794.137 42.57 790.924 43.3736 787.661 43.3738H670.055C666.792 43.3735 663.58 42.57 660.7 41.0341C657.821 39.4981 655.363 37.2768 653.543 34.5658C651.723 31.8548 650.596 28.7374 650.264 25.4882C649.931 22.239 650.401 18.9576 651.633 15.9332H626.605C615.498 15.9332 604.845 20.3502 596.991 28.2124C589.137 36.0747 584.725 46.7383 584.725 57.8572V589.209C584.725 594.714 585.808 600.166 587.913 605.252C590.017 610.339 593.102 614.961 596.991 618.854C600.88 622.747 605.497 625.835 610.578 627.942C615.659 630.048 621.105 631.133 626.605 631.133H832.88C843.987 631.133 854.64 626.716 862.494 618.854C870.348 610.991 874.76 600.328 874.76 589.209V57.8573C874.76 52.3518 873.677 46.9001 871.572 41.8136C869.468 36.7272 866.383 32.1055 862.494 28.2125C858.605 24.3195 853.988 21.2314 848.907 19.1245C843.826 17.0176 838.38 15.9332 832.88 15.9332H832.88ZM828.378 262.431C828.369 265.308 827.224 268.065 825.191 270.1C823.159 272.135 820.405 273.281 817.53 273.29H765.099C762.224 273.281 759.47 272.135 757.438 270.1C755.405 268.065 754.259 265.308 754.251 262.431V259.716C754.259 256.838 755.405 254.081 757.438 252.046C759.47 250.012 762.224 248.865 765.099 248.857H817.53C820.405 248.865 823.159 250.012 825.191 252.046C827.224 254.081 828.369 256.838 828.378 259.716V262.431ZM834.254 214.469C834.245 217.347 833.1 220.104 831.067 222.138C829.035 224.173 826.28 225.32 823.406 225.328H635.377C632.502 225.32 629.748 224.173 627.715 222.138C625.683 220.104 624.537 217.347 624.529 214.469V211.754C624.537 208.877 625.683 206.12 627.715 204.085C629.748 202.05 632.502 200.904 635.377 200.895H823.406C826.28 200.904 829.035 202.05 831.067 204.085C833.1 206.12 834.245 208.877 834.254 211.754V214.469ZM834.254 166.508C834.245 169.385 833.1 172.142 831.067 174.177C829.035 176.212 826.28 177.358 823.406 177.367H635.377C632.502 177.358 629.748 176.212 627.715 174.177C625.683 172.142 624.537 169.385 624.529 166.508V163.793C624.537 160.915 625.683 158.158 627.715 156.124C629.748 154.089 632.502 152.942 635.377 152.934H823.406C826.28 152.942 829.035 154.089 831.067 156.124C833.1 158.158 834.245 160.915 834.254 163.793V166.508ZM834.254 118.546C834.245 121.424 833.1 124.181 831.067 126.216C829.035 128.25 826.28 129.397 823.406 129.405H635.377C632.502 129.397 629.748 128.25 627.715 126.216C625.683 124.181 624.537 121.424 624.529 118.546V115.831C624.537 112.954 625.683 110.197 627.715 108.162C629.748 106.127 632.502 104.981 635.377 104.972H823.406C826.28 104.981 829.035 106.127 831.067 108.162C833.1 110.197 834.245 112.954 834.254 115.831V118.546Z" fill="white"/>
<path d="M639.445 219.899C642.939 219.899 645.773 217.063 645.773 213.564C645.773 210.066 642.939 207.23 639.445 207.23C635.95 207.23 633.117 210.066 633.117 213.564C633.117 217.063 635.95 219.899 639.445 219.899Z" fill="white"/>
<path d="M660.236 219.899C663.731 219.899 666.564 217.063 666.564 213.564C666.564 210.066 663.731 207.23 660.236 207.23C656.742 207.23 653.908 210.066 653.908 213.564C653.908 217.063 656.742 219.899 660.236 219.899Z" fill="white"/>
<path d="M681.028 219.899C684.523 219.899 687.356 217.063 687.356 213.564C687.356 210.066 684.523 207.23 681.028 207.23C677.533 207.23 674.7 210.066 674.7 213.564C674.7 217.063 677.533 219.899 681.028 219.899Z" fill="white"/>
<path d="M701.82 219.899C705.315 219.899 708.148 217.063 708.148 213.564C708.148 210.066 705.315 207.23 701.82 207.23C698.325 207.23 695.492 210.066 695.492 213.564C695.492 217.063 698.325 219.899 701.82 219.899Z" fill="white"/>
<path d="M769.619 267.86C773.114 267.86 775.947 265.024 775.947 261.526C775.947 258.027 773.114 255.191 769.619 255.191C766.124 255.191 763.291 258.027 763.291 261.526C763.291 265.024 766.124 267.86 769.619 267.86Z" fill="white"/>
<path d="M790.41 267.86C793.905 267.86 796.738 265.024 796.738 261.526C796.738 258.027 793.905 255.191 790.41 255.191C786.916 255.191 784.083 258.027 784.083 261.526C784.083 265.024 786.916 267.86 790.41 267.86Z" fill="white"/>
<path d="M811.202 267.86C814.697 267.86 817.53 265.024 817.53 261.526C817.53 258.027 814.697 255.191 811.202 255.191C807.707 255.191 804.874 258.027 804.874 261.526C804.874 265.024 807.707 267.86 811.202 267.86Z" fill="white"/>
<path d="M835.709 343.601H621.266C616.228 343.601 611.396 345.605 607.834 349.171C604.272 352.737 602.27 357.574 602.27 362.617V467.207C602.27 472.25 604.272 477.087 607.834 480.653C611.396 484.219 616.228 486.223 621.266 486.223H835.709C840.747 486.223 845.578 484.219 849.141 480.653C852.703 477.087 854.704 472.25 854.704 467.207V362.617C854.704 357.574 852.703 352.737 849.141 349.171C845.578 345.605 840.747 343.601 835.709 343.601H835.709ZM615.96 356.573C616.384 356.496 626.425 354.786 634.74 359.794C643.054 364.801 646.249 374.485 646.381 374.894L646.717 375.938L645.638 376.13C644.099 376.37 642.542 376.485 640.984 376.472C636.042 376.566 631.165 375.336 626.858 372.908C618.543 367.901 615.349 358.218 615.218 357.809L614.881 356.764L615.96 356.573ZM662.51 453.678H624.263C621.473 453.678 618.798 452.569 616.825 450.594C614.853 448.62 613.745 445.941 613.745 443.149C613.745 440.356 614.853 437.678 616.825 435.704C618.798 433.729 621.473 432.62 624.263 432.62H662.51C665.3 432.62 667.975 433.729 669.948 435.704C671.92 437.678 673.028 440.356 673.028 443.149C673.028 445.941 671.92 448.62 669.948 450.594C667.975 452.569 665.3 453.678 662.51 453.678V453.678ZM836.537 451.764C836.528 454.807 835.316 457.724 833.166 459.876C831.016 462.028 828.103 463.241 825.062 463.25H796.377C793.336 463.241 790.423 462.028 788.273 459.876C786.123 457.724 784.911 454.807 784.903 451.764V434.534C784.911 431.491 786.123 428.574 788.273 426.422C790.423 424.27 793.336 423.057 796.377 423.048H825.062C828.103 423.057 831.016 424.27 833.166 426.422C835.316 428.574 836.528 431.491 836.537 434.534L836.537 451.764Z" fill="#6C63FF"/>
<path d="M805.626 448.213H794.092C793.268 448.213 792.479 448.541 791.896 449.124C791.314 449.707 790.987 450.497 790.987 451.322C790.987 452.146 791.314 452.937 791.896 453.52C792.479 454.103 793.268 454.43 794.092 454.43H805.626C806.449 454.43 807.239 454.103 807.821 453.52C808.404 452.937 808.731 452.146 808.731 451.322C808.731 450.497 808.404 449.707 807.821 449.124C807.239 448.541 806.449 448.213 805.626 448.213V448.213Z" fill="#3F3D56"/>
<path d="M826.919 448.213H815.385C814.561 448.213 813.772 448.541 813.189 449.124C812.607 449.707 812.28 450.497 812.28 451.322C812.28 452.146 812.607 452.937 813.189 453.52C813.772 454.103 814.561 454.43 815.385 454.43H826.919C827.742 454.43 828.532 454.103 829.114 453.52C829.697 452.937 830.024 452.146 830.024 451.322C830.024 450.497 829.697 449.707 829.114 449.124C828.532 448.541 827.742 448.213 826.919 448.213V448.213Z" fill="#3F3D56"/>
<path d="M805.624 439.438H794.09C793.267 439.438 792.477 439.766 791.894 440.349C791.312 440.932 790.985 441.723 790.985 442.547C790.985 443.371 791.312 444.162 791.894 444.745C792.477 445.328 793.267 445.655 794.09 445.655H805.624C806.447 445.655 807.237 445.328 807.82 444.745C808.402 444.162 808.729 443.371 808.729 442.547C808.729 441.723 808.402 440.932 807.82 440.349C807.237 439.766 806.447 439.438 805.624 439.438V439.438Z" fill="#3F3D56"/>
<path d="M826.917 439.438H815.383C814.56 439.438 813.77 439.766 813.188 440.349C812.605 440.932 812.278 441.723 812.278 442.547C812.278 443.371 812.605 444.162 813.188 444.745C813.77 445.328 814.56 445.655 815.383 445.655H826.917C827.741 445.655 828.53 445.328 829.113 444.745C829.695 444.162 830.022 443.371 830.022 442.547C830.022 441.723 829.695 440.932 829.113 440.349C828.53 439.766 827.741 439.438 826.917 439.438H826.917Z" fill="#3F3D56"/>
<path d="M805.624 430.841H794.09C793.267 430.841 792.477 431.169 791.894 431.752C791.312 432.335 790.985 433.125 790.985 433.95C790.985 434.774 791.312 435.565 791.894 436.148C792.477 436.731 793.267 437.058 794.09 437.058H805.624C806.447 437.058 807.237 436.731 807.82 436.148C808.402 435.565 808.729 434.774 808.729 433.95C808.729 433.125 808.402 432.335 807.82 431.752C807.237 431.169 806.447 430.841 805.624 430.841V430.841Z" fill="#3F3D56"/>
<path d="M826.917 430.841H815.383C814.56 430.841 813.77 431.169 813.188 431.752C812.605 432.335 812.278 433.125 812.278 433.95C812.278 434.774 812.605 435.565 813.188 436.148C813.77 436.731 814.56 437.058 815.383 437.058H826.917C827.741 437.058 828.53 436.731 829.113 436.148C829.695 435.565 830.022 434.774 830.022 433.95C830.022 433.125 829.695 432.335 829.113 431.752C828.53 431.169 827.741 430.841 826.917 430.841H826.917Z" fill="#3F3D56"/>
<path d="M984.235 383H956.264V411H984.235V383Z" fill="#E6E6E6"/>
<path d="M923.298 400H969.25V446H923.298V400ZM967.252 402H925.296V444H967.252V402Z" fill="#3F3D56"/>
<path d="M497.744 152H469.773V180H497.744V152Z" fill="#E6E6E6"/>
<path d="M530.709 163H484.757V117H530.709V163ZM486.755 161H528.711V119H486.755V161Z" fill="#3F3D56"/>
<path d="M1208.3 674H942.975C942.79 674 942.613 673.947 942.482 673.854C942.352 673.76 942.278 673.633 942.278 673.5C942.278 673.367 942.352 673.24 942.482 673.146C942.613 673.053 942.79 673 942.975 673H1208.3C1208.49 673 1208.66 673.053 1208.8 673.146C1208.93 673.24 1209 673.367 1209 673.5C1209 673.633 1208.93 673.76 1208.8 673.854C1208.66 673.947 1208.49 674 1208.3 674Z" fill="#3F3D56"/>
<path d="M1045.89 666H895.393C877.042 666 862.112 651.07 862.112 632.719V309.281C862.112 290.93 877.042 276 895.393 276H1045.89C1064.24 276 1079.17 290.93 1079.17 309.281V632.719C1079.17 651.07 1064.24 666 1045.89 666V666Z" fill="#3F3D56"/>
<path d="M1079.17 394.971C1078.4 394.971 1077.77 395.603 1077.77 396.379V441.433C1077.77 442.21 1078.4 442.841 1079.17 442.841C1079.95 442.841 1080.58 442.21 1080.58 441.433V396.379C1080.58 395.603 1079.95 394.971 1079.17 394.971Z" fill="#3F3D56"/>
<path d="M1076.01 309.281V632.713C1076.01 648.686 1063.57 661.752 1047.86 662.766H1047.85C1047.62 662.78 1047.38 662.794 1047.14 662.801C1046.73 662.822 1046.31 662.829 1045.89 662.829C1045.89 662.829 1044.34 662.717 1041.51 662.505C1038.65 662.294 1034.49 661.977 1029.31 661.562C1027.75 661.442 1026.11 661.309 1024.38 661.168C1020.93 660.886 1017.14 660.576 1013.08 660.224C1011.46 660.091 1009.78 659.943 1008.07 659.795C999.331 659.042 989.538 658.162 979.211 657.162C977.465 657 975.705 656.831 973.931 656.655C973.467 656.606 972.995 656.564 972.523 656.515C965.16 655.789 865.28 636.487 865.28 632.713V309.281C865.28 292.646 878.761 279.165 895.396 279.165H913.375C916.248 279.165 918.557 281.404 918.803 284.269C918.824 284.459 918.845 284.649 918.88 284.839C919.401 287.718 922.041 289.725 924.97 289.725H1016.32C1019.25 289.725 1021.89 287.718 1022.41 284.839C1022.44 284.649 1022.46 284.459 1022.48 284.269C1022.73 281.404 1025.04 279.165 1027.91 279.165H1045.89C1062.53 279.165 1076.01 292.646 1076.01 309.281V309.281Z" fill="white"/>
<path d="M861.408 361.181C860.631 361.181 860 361.812 860 362.588V373.852C860 374.629 860.631 375.26 861.408 375.26C862.184 375.26 862.816 374.628 862.816 373.852V362.588C862.816 361.812 862.184 361.181 861.408 361.181Z" fill="#3F3D56"/>
<path d="M861.408 394.971C860.631 394.971 860 395.603 860 396.379V418.202C860 418.979 860.631 419.61 861.408 419.61C862.184 419.61 862.816 418.979 862.816 418.202V396.379C862.816 395.603 862.184 394.971 861.408 394.971Z" fill="#3F3D56"/>
<path d="M861.408 425.946C860.631 425.946 860 426.577 860 427.354V449.177C860 449.953 860.631 450.585 861.408 450.585C862.184 450.585 862.816 449.953 862.816 449.177V427.354C862.816 426.577 862.184 425.946 861.408 425.946V425.946Z" fill="#3F3D56"/>
<path d="M912.885 284.096H885.96C885.813 284.096 885.695 284.214 885.695 284.36V287.351C885.695 287.497 885.813 287.616 885.96 287.616H912.885C913.031 287.616 913.15 287.497 913.15 287.351V284.36C913.15 284.214 913.031 284.096 912.885 284.096Z" fill="#E6E6E6"/>
<path d="M1032.36 287.616C1033.92 287.616 1035.18 286.355 1035.18 284.8C1035.18 283.245 1033.92 281.984 1032.36 281.984C1030.81 281.984 1029.54 283.245 1029.54 284.8C1029.54 286.355 1030.81 287.616 1032.36 287.616Z" fill="#E6E6E6"/>
<path d="M1040.1 287.616C1041.66 287.616 1042.92 286.355 1042.92 284.8C1042.92 283.245 1041.66 281.984 1040.1 281.984C1038.55 281.984 1037.29 283.245 1037.29 284.8C1037.29 286.355 1038.55 287.616 1040.1 287.616Z" fill="#E6E6E6"/>
<path d="M1047.85 287.616C1049.4 287.616 1050.66 286.355 1050.66 284.8C1050.66 283.245 1049.4 281.984 1047.85 281.984C1046.29 281.984 1045.03 283.245 1045.03 284.8C1045.03 286.355 1046.29 287.616 1047.85 287.616Z" fill="#E6E6E6"/>
<path d="M1030.01 474.506H910.577C908.695 474.506 907.165 472.976 907.165 471.094C907.165 469.213 908.695 467.682 910.577 467.682H1030.01C1031.89 467.682 1033.42 469.213 1033.42 471.094C1033.42 472.976 1031.89 474.506 1030.01 474.506Z" fill="#E6E6E6"/>
<path d="M970.72 606.731C998.045 606.731 1020.2 584.579 1020.2 557.253C1020.2 529.928 998.045 507.776 970.72 507.776C943.394 507.776 921.242 529.928 921.242 557.253C921.242 584.579 943.394 606.731 970.72 606.731Z" fill="#6C63FF"/>
<path d="M978.583 541.098C974.408 541.27 969.687 541.557 966.601 544.761C963.919 547.544 963.332 551.675 966.051 554.647C968.777 557.626 973.016 558.03 976.158 560.354C979.848 563.083 979.308 568.483 975.737 571.07C971.526 574.12 966.089 572.698 962.24 569.796C961.253 569.052 960.296 570.718 961.271 571.453C964.72 574.053 969.221 575.501 973.485 574.257C977.333 573.134 980.317 569.996 980.62 565.914C980.765 563.966 980.211 561.989 979 560.451C977.721 558.827 975.879 557.828 974.017 557.015C970.812 555.616 965.293 553.805 966.225 549.249C967.355 543.726 974.076 543.203 978.583 543.018C979.814 542.967 979.82 541.048 978.583 541.098L978.583 541.098Z" fill="white"/>
<path d="M970.837 538.486L970.653 580.622C970.647 581.857 972.567 581.858 972.572 580.622L972.756 538.486C972.762 537.251 970.842 537.249 970.837 538.486Z" fill="white"/>
<path d="M922.427 400.269L915.406 396.944C918.285 400.962 920.767 407.239 922.095 412.233C924.344 407.581 927.97 401.888 931.559 398.488L924.139 400.397C928.711 377.989 945.908 361.902 965.601 361.902V360.196C945.031 360.196 927.095 376.957 922.427 400.269Z" fill="#3F3D56"/>
<path d="M954.74 434.412H910.381C908.499 434.412 906.968 432.882 906.968 431C906.968 429.119 908.499 427.588 910.381 427.588H954.74C956.621 427.588 958.152 429.119 958.152 431C958.152 432.882 956.621 434.412 954.74 434.412Z" fill="#E6E6E6"/>
<path d="M1175.09 400.748L1174.56 441.587L1164.41 477.993L1156.3 474.963L1159.9 441.593L1159.43 396.436L1175.09 400.748Z" fill="#FFB6B6"/>
<path d="M1164.38 483.863C1165.33 478.628 1163.59 473.926 1160.48 473.36C1157.38 472.794 1154.09 476.579 1153.13 481.814C1152.18 487.049 1153.93 491.751 1157.03 492.317C1160.14 492.883 1163.43 489.098 1164.38 483.863Z" fill="#FFB6B6"/>
<path d="M1162.77 352.122C1162.77 352.122 1180.16 352.361 1180.14 361.608C1180.14 366.829 1179.02 414.232 1175.9 443.028C1173.5 465.235 1168.91 471.028 1168.91 471.028L1157.92 446.028L1162.77 352.122V352.122Z" fill="#E6E6E6"/>
<path d="M1162.32 435.559H1103.6C1108.52 424.564 1111.55 414.092 1106.82 405.763L1162.32 402.541C1159.55 413.786 1159.21 424.821 1162.32 435.559Z" fill="#FFB6B6"/>
<path d="M1155.08 338.117L1131.75 336.506L1122.1 348.586L1117.21 349.476C1109.87 350.812 1104.65 357.365 1104.97 364.822L1106.88 408.135L1162.64 412.205L1176 355.803L1159.91 349.391L1155.08 338.117V338.117Z" fill="#E6E6E6"/>
<path d="M1012.81 351.182C1014.47 352.673 1015.65 354.414 1016.27 356.103L1032.93 369.306L1026.43 377.059L1010.22 362.832C1008.48 362.388 1006.63 361.396 1004.97 359.905C1001.19 356.5 999.879 351.787 1002.04 349.378C1004.21 346.969 1009.03 347.777 1012.81 351.182L1012.81 351.182Z" fill="#FFB6B6"/>
<path d="M1130.62 362.297V362.297L1066.77 405.457L1021.01 373.573L1027.88 361.113L1063.9 382.069L1097.12 356.535C1108.95 345.412 1123.77 347.568 1130.62 362.297H1130.62Z" fill="#E6E6E6"/>
<path d="M1142.03 332.889C1151.59 332.889 1159.34 325.132 1159.34 315.563C1159.34 305.994 1151.59 298.237 1142.03 298.237C1132.48 298.237 1124.73 305.994 1124.73 315.563C1124.73 325.132 1132.48 332.889 1142.03 332.889Z" fill="#FFB6B6"/>
<path d="M1165.56 311.306V314.666L1146.04 309.166L1131.41 312.236C1131.24 310.006 1130.58 307.816 1129.48 305.876C1130.24 308.988 1130.33 311.395 1129.52 312.636L1127.55 313.046C1127.23 312.176 1126.61 311.416 1125.8 310.956C1125.72 310.906 1125.62 310.866 1125.53 310.896C1125.39 310.946 1125.38 311.126 1125.38 311.266C1125.4 312.006 1125.42 312.746 1125.45 313.486L1119.8 314.666V311.306C1114.37 299.088 1128.67 288.516 1142.68 288.406C1149.01 288.357 1154.72 290.966 1158.87 295.106C1163 299.256 1165.56 304.976 1165.56 311.306V311.306Z" fill="#2F2E41"/>
<path d="M1176.54 350.705L1175.07 350.582C1175.17 350.1 1175.28 349.623 1175.37 349.141C1176.19 345.091 1174.39 339.936 1174.26 336.045C1173.57 340.156 1174.75 345.213 1173.52 349.116C1173.39 349.55 1168.05 352.349 1167.91 352.776C1162 350.615 1155.86 343.71 1148.9 347.743C1144.78 350.128 1140.08 349.083 1135.41 347.991C1134.25 347.721 1134.09 342.001 1132.94 341.776C1130.89 341.374 1127.88 346.573 1125.95 346.776L1133.94 315.776C1133.94 298.912 1132.38 281.219 1153.72 287.182C1159.09 288.682 1164.4 289.857 1168.36 294.292C1172.32 298.732 1175.14 304.938 1176.14 312.005C1176.75 316.268 1180.51 330.744 1176.54 350.705V350.705Z" fill="#2F2E41"/>
<path d="M1162.76 662.441L1153.23 662.666L1147.92 619.822L1161.98 619.489L1162.76 662.441Z" fill="#FFB7B7"/>
<path d="M1130.08 682.337C1130.08 683.948 1131.22 685.254 1132.63 685.254H1151.54C1151.54 685.254 1153.4 677.766 1160.98 674.544L1161.51 685.254H1171.26L1170.08 668.032C1170.08 668.032 1172.69 658.818 1167.27 654.109C1161.85 649.399 1166.24 650.054 1166.24 650.054L1164.11 639.395L1149.37 641.131L1149.26 657.863L1142.11 674.471L1131.61 679.66C1130.68 680.121 1130.08 681.174 1130.08 682.337H1130.08H1130.08Z" fill="#2F2E41"/>
<path d="M1133.78 655.459L1124.62 658.096L1108.62 618.004L1122.14 614.11L1133.78 655.459Z" fill="#FFB7B7"/>
<path d="M1107.21 683.006C1107.61 684.565 1109.05 685.538 1110.41 685.18L1128.7 680.377C1128.7 680.377 1128.61 672.661 1135.13 667.617L1138.35 677.844L1147.78 675.366L1142.28 659.008C1142.28 659.008 1142.46 649.433 1136.03 646.254C1129.59 643.075 1134 642.594 1134 642.594L1129.24 632.825L1115.42 638.248L1119.56 654.46L1116.85 672.342L1108.02 680.026C1107.23 680.71 1106.91 681.881 1107.21 683.006L1107.21 683.006L1107.21 683.006Z" fill="#2F2E41"/>
<path d="M1156.92 433.028L1162.91 435.028C1172.28 452.354 1176.26 475.362 1175.73 503.106L1165.08 627.718H1147.67L1134.92 488.896L1112.44 541.001L1128.89 627.718L1112.44 629.396L1079.32 539.224L1102.39 434.423L1156.92 433.028V433.028Z" fill="#2F2E41"/>
</g>
<path d="M596.776 290.091H594.04V215.582C594.04 209.918 592.918 204.311 590.738 199.079C588.558 193.847 585.363 189.093 581.335 185.088C577.306 181.084 572.524 177.907 567.261 175.74C561.998 173.573 556.357 172.457 550.66 172.457H391.863C386.167 172.457 380.526 173.573 375.262 175.74C369.999 177.907 365.217 181.084 361.189 185.088C357.161 189.093 353.965 193.847 351.785 199.079C349.605 204.311 348.483 209.918 348.483 215.581V624.348C348.483 630.011 349.605 635.619 351.785 640.851C353.965 646.083 357.161 650.837 361.189 654.841C365.217 658.846 369.999 662.022 375.262 664.189C380.526 666.357 386.167 667.472 391.863 667.472H550.66C556.357 667.472 561.998 666.357 567.261 664.189C572.524 662.022 577.306 658.846 581.334 654.841C585.363 650.837 588.558 646.083 590.738 640.851C592.918 635.619 594.04 630.011 594.04 624.348V343.129H596.776V290.091Z" fill="#3F3D56"/>
<path d="M584.806 215.878V624.049C584.806 628.278 583.968 632.466 582.34 636.373C580.711 640.281 578.324 643.831 575.315 646.821C572.307 649.811 568.735 652.182 564.804 653.8C560.873 655.417 556.66 656.249 552.405 656.247H392.844C388.591 656.247 384.379 655.415 380.449 653.797C376.519 652.179 372.948 649.807 369.941 646.817C366.933 643.827 364.547 640.278 362.92 636.371C361.292 632.465 360.454 628.278 360.455 624.049V215.878C360.454 211.649 361.292 207.462 362.92 203.556C364.547 199.649 366.933 196.1 369.941 193.11C372.948 190.12 376.519 187.748 380.449 186.13C384.379 184.512 388.591 183.679 392.844 183.68H412.208C411.257 186.003 410.896 188.523 411.155 191.018C411.414 193.513 412.285 195.906 413.693 197.988C415.101 200.069 417.001 201.775 419.228 202.954C421.454 204.134 423.938 204.752 426.461 204.754H517.432C519.956 204.756 522.442 204.141 524.671 202.962C526.9 201.783 528.802 200.077 530.211 197.995C531.62 195.912 532.491 193.517 532.748 191.021C533.005 188.524 532.64 186.003 531.686 183.68H552.405C556.66 183.678 560.873 184.51 564.804 186.127C568.735 187.745 572.307 190.116 575.315 193.106C578.324 196.096 580.711 199.646 582.34 203.554C583.968 207.461 584.806 211.649 584.806 215.878V215.878Z" fill="white"/>
<path d="M535.172 427.985H394.923C392.466 427.983 390.111 427.011 388.374 425.285C386.637 423.558 385.66 421.217 385.657 418.775V414.19C385.66 411.748 386.637 409.407 388.374 407.68C390.111 405.953 392.466 404.982 394.923 404.979H535.172C537.629 404.982 539.984 405.953 541.721 407.68C543.458 409.407 544.435 411.748 544.438 414.19V418.775C544.435 421.217 543.458 423.558 541.721 425.285C539.984 427.011 537.629 427.983 535.172 427.985Z" fill="#F0F0F0"/>
<path d="M535.172 467.507H394.923C392.466 467.504 390.111 466.533 388.374 464.806C386.637 463.079 385.66 460.738 385.657 458.296V453.711C385.66 451.269 386.637 448.928 388.374 447.201C390.111 445.474 392.466 444.503 394.923 444.5H535.172C537.629 444.503 539.984 445.474 541.721 447.201C543.458 448.928 544.435 451.269 544.438 453.711V458.296C544.435 460.738 543.458 463.079 541.721 464.806C539.984 466.533 537.629 467.504 535.172 467.507V467.507Z" fill="#F0F0F0"/>
<path d="M542.188 419.147H401.939C399.359 419.144 396.886 418.124 395.063 416.311C393.239 414.498 392.213 412.039 392.21 409.475V404.891C392.213 402.326 393.239 399.868 395.063 398.055C396.886 396.242 399.359 395.222 401.939 395.219H542.188C544.767 395.222 547.24 396.242 549.064 398.055C550.888 399.868 551.914 402.326 551.917 404.891V409.475C551.914 412.039 550.888 414.498 549.064 416.311C547.24 418.124 544.767 419.144 542.188 419.147V419.147ZM401.939 397.061C399.851 397.064 397.849 397.889 396.372 399.357C394.896 400.825 394.065 402.815 394.063 404.891V409.475C394.065 411.551 394.896 413.541 396.372 415.009C397.849 416.477 399.851 417.302 401.939 417.304H542.188C544.276 417.302 546.278 416.477 547.754 415.009C549.231 413.541 550.061 411.551 550.064 409.475V404.891C550.061 402.815 549.231 400.825 547.754 399.357C546.278 397.889 544.276 397.064 542.188 397.061H401.939Z" fill="#3F3D56"/>
<path d="M542.188 458.668H401.939C399.359 458.665 396.886 457.645 395.063 455.832C393.239 454.019 392.213 451.56 392.21 448.996V444.412C392.213 441.848 393.239 439.389 395.063 437.576C396.886 435.763 399.359 434.743 401.939 434.74H542.188C544.767 434.743 547.24 435.763 549.064 437.576C550.888 439.389 551.914 441.848 551.917 444.412V448.996C551.914 451.56 550.888 454.019 549.064 455.832C547.24 457.645 544.767 458.665 542.188 458.668V458.668ZM401.939 436.582C399.851 436.585 397.849 437.41 396.372 438.878C394.896 440.346 394.065 442.336 394.063 444.412V448.996C394.065 451.072 394.896 453.062 396.372 454.53C397.849 455.998 399.851 456.823 401.939 456.826H542.188C544.276 456.823 546.278 455.998 547.754 454.53C549.231 453.062 550.061 451.072 550.064 448.996V444.412C550.061 442.336 549.231 440.346 547.754 438.878C546.278 437.41 544.276 436.585 542.188 436.582H401.939Z" fill="#3F3D56"/>
<path d="M584.806 215.878V304.661C570.615 308.372 555.757 308.798 541.374 305.905C526.992 303.013 513.468 296.879 501.845 287.976C490.221 279.073 480.806 267.637 474.326 254.55C467.845 241.462 464.471 227.071 464.463 212.484C464.463 209.88 464.568 207.303 464.779 204.754H517.432C519.956 204.756 522.442 204.141 524.671 202.962C526.9 201.783 528.802 200.077 530.211 197.995C531.62 195.912 532.491 193.517 532.748 191.021C533.005 188.524 532.64 186.003 531.686 183.68H552.405C556.66 183.678 560.873 184.51 564.804 186.127C568.735 187.745 572.307 190.116 575.315 193.106C578.324 196.096 580.711 199.646 582.34 203.554C583.968 207.461 584.806 211.649 584.806 215.878V215.878Z" fill="#F0F0F0"/>
<path d="M441.077 650.703C441.077 652.574 441.007 654.422 440.855 656.247H392.844C388.591 656.247 384.379 655.415 380.449 653.797C376.519 652.179 372.948 649.807 369.941 646.817C366.933 643.827 364.547 640.278 362.92 636.371C361.292 632.465 360.454 628.278 360.455 624.049V580.39C370.518 579.089 380.746 579.935 390.455 582.872C400.164 585.809 409.131 590.769 416.76 597.423C424.389 604.076 430.504 612.269 434.697 621.457C438.89 630.644 441.065 640.614 441.077 650.703H441.077Z" fill="#6C63FF"/>
<path d="M495.417 515.164H428.832C426.376 515.161 424.021 514.19 422.284 512.463C420.547 510.736 419.57 508.395 419.567 505.953V501.369C419.57 498.926 420.547 496.585 422.284 494.859C424.021 493.132 426.376 492.16 428.832 492.158H495.417C497.873 492.16 500.228 493.132 501.965 494.859C503.702 496.585 504.679 498.926 504.682 501.369V505.953C504.679 508.395 503.702 510.736 501.965 512.463C500.228 514.19 497.873 515.161 495.417 515.164V515.164Z" fill="#6C63FF"/>
<path d="M502.432 506.326H435.848C433.269 506.323 430.796 505.303 428.972 503.49C427.148 501.677 426.122 499.218 426.119 496.654V492.07C426.122 489.505 427.148 487.047 428.972 485.234C430.796 483.421 433.269 482.401 435.848 482.398H502.432C505.012 482.401 507.485 483.421 509.308 485.234C511.132 487.047 512.158 489.505 512.161 492.07V496.654C512.158 499.218 511.132 501.677 509.308 503.49C507.485 505.303 505.012 506.323 502.432 506.326V506.326ZM435.848 484.24C433.76 484.243 431.758 485.068 430.282 486.536C428.805 488.004 427.975 489.994 427.972 492.07V496.654C427.975 498.73 428.805 500.72 430.282 502.188C431.758 503.656 433.76 504.481 435.848 504.483H502.432C504.52 504.481 506.522 503.656 507.999 502.188C509.475 500.72 510.306 498.73 510.308 496.654V492.07C510.306 489.994 509.475 488.004 507.999 486.536C506.522 485.068 504.52 484.243 502.432 484.24H435.848Z" fill="#3F3D56"/>
<defs>
<clipPath id="clip0_38_368">
<rect width="855.227" height="674" fill="white" transform="translate(469.773)"/>
</clipPath>
</defs>
</svg>
