<svg width="856" height="674" viewBox="0 0 856 674" fill="none" xmlns="http://www.w3.org/2000/svg">
<g clip-path="url(#clip0_3_46)">
<path d="M421.657 153.136H418.12V56.1392C418.12 41.2502 412.212 26.9709 401.694 16.4428C391.177 5.91467 376.913 1.85655e-05 362.04 3.56295e-10H156.753C149.389 -2.62641e-05 142.096 1.45203 135.292 4.27326C128.488 7.09449 122.306 11.2296 117.099 16.4426C111.891 21.6556 107.76 27.8443 104.942 34.6554C102.123 41.4665 100.673 48.7666 100.673 56.1389V588.271C100.673 595.644 102.123 602.944 104.942 609.755C107.76 616.566 111.891 622.755 117.098 627.968C122.306 633.181 128.488 637.316 135.292 640.137C142.096 642.958 149.389 644.411 156.753 644.411H362.039C369.404 644.411 376.696 642.958 383.5 640.137C390.304 637.316 396.487 633.181 401.694 627.968C406.902 622.755 411.033 616.566 413.851 609.755C416.669 602.944 418.12 595.644 418.12 588.272V222.18H421.657V153.136Z" fill="#3F3D56"/>
<path d="M363.88 15.9332H337.083C338.316 18.9576 338.786 22.2389 338.453 25.4882C338.12 28.7374 336.994 31.8548 335.174 34.5658C333.354 37.2768 330.896 39.4981 328.016 41.0341C325.137 42.57 321.924 43.3736 318.661 43.3738H201.055C197.792 43.3735 194.58 42.57 191.7 41.0341C188.821 39.4981 186.363 37.2768 184.543 34.5658C182.723 31.8548 181.596 28.7374 181.264 25.4882C180.931 22.239 181.401 18.9576 182.633 15.9332H157.605C146.498 15.9332 135.845 20.3502 127.991 28.2124C120.137 36.0747 115.725 46.7383 115.725 57.8572V589.209C115.725 594.714 116.808 600.166 118.913 605.252C121.017 610.339 124.102 614.961 127.991 618.854C131.88 622.747 136.497 625.835 141.578 627.942C146.659 630.048 152.105 631.133 157.605 631.133H363.88C374.987 631.133 385.64 626.716 393.494 618.854C401.348 610.991 405.76 600.328 405.76 589.209V57.8573C405.76 52.3518 404.677 46.9001 402.572 41.8136C400.468 36.7272 397.383 32.1055 393.494 28.2125C389.605 24.3195 384.988 21.2314 379.907 19.1245C374.826 17.0176 369.38 15.9332 363.88 15.9332H363.88ZM359.378 262.431C359.369 265.308 358.224 268.065 356.191 270.1C354.159 272.135 351.405 273.281 348.53 273.29H296.099C293.224 273.281 290.47 272.135 288.438 270.1C286.405 268.065 285.259 265.308 285.251 262.431V259.716C285.259 256.838 286.405 254.081 288.438 252.046C290.47 250.012 293.224 248.865 296.099 248.857H348.53C351.405 248.865 354.159 250.012 356.191 252.046C358.224 254.081 359.369 256.838 359.378 259.716V262.431ZM365.254 214.469C365.245 217.347 364.1 220.104 362.067 222.138C360.035 224.173 357.28 225.32 354.406 225.328H166.377C163.502 225.32 160.748 224.173 158.715 222.138C156.683 220.104 155.537 217.347 155.529 214.469V211.754C155.537 208.877 156.683 206.12 158.715 204.085C160.748 202.05 163.502 200.904 166.377 200.895H354.406C357.28 200.904 360.035 202.05 362.067 204.085C364.1 206.12 365.245 208.877 365.254 211.754V214.469ZM365.254 166.508C365.245 169.385 364.1 172.142 362.067 174.177C360.035 176.212 357.28 177.358 354.406 177.367H166.377C163.502 177.358 160.748 176.212 158.715 174.177C156.683 172.142 155.537 169.385 155.529 166.508V163.793C155.537 160.915 156.683 158.158 158.715 156.124C160.748 154.089 163.502 152.942 166.377 152.934H354.406C357.28 152.942 360.035 154.089 362.067 156.124C364.1 158.158 365.245 160.915 365.254 163.793V166.508ZM365.254 118.546C365.245 121.424 364.1 124.181 362.067 126.216C360.035 128.25 357.28 129.397 354.406 129.405H166.377C163.502 129.397 160.748 128.25 158.715 126.216C156.683 124.181 155.537 121.424 155.529 118.546V115.831C155.537 112.954 156.683 110.197 158.715 108.162C160.748 106.127 163.502 104.981 166.377 104.972H354.406C357.28 104.981 360.035 106.127 362.067 108.162C364.1 110.197 365.245 112.954 365.254 115.831V118.546Z" fill="white"/>
<path d="M170.445 219.899C173.939 219.899 176.773 217.063 176.773 213.564C176.773 210.066 173.939 207.23 170.445 207.23C166.95 207.23 164.117 210.066 164.117 213.564C164.117 217.063 166.95 219.899 170.445 219.899Z" fill="white"/>
<path d="M191.236 219.899C194.731 219.899 197.564 217.063 197.564 213.564C197.564 210.066 194.731 207.23 191.236 207.23C187.742 207.23 184.908 210.066 184.908 213.564C184.908 217.063 187.742 219.899 191.236 219.899Z" fill="white"/>
<path d="M212.028 219.899C215.523 219.899 218.356 217.063 218.356 213.564C218.356 210.066 215.523 207.23 212.028 207.23C208.533 207.23 205.7 210.066 205.7 213.564C205.7 217.063 208.533 219.899 212.028 219.899Z" fill="white"/>
<path d="M232.82 219.899C236.315 219.899 239.148 217.063 239.148 213.564C239.148 210.066 236.315 207.23 232.82 207.23C229.325 207.23 226.492 210.066 226.492 213.564C226.492 217.063 229.325 219.899 232.82 219.899Z" fill="white"/>
<path d="M300.619 267.86C304.114 267.86 306.947 265.024 306.947 261.526C306.947 258.027 304.114 255.191 300.619 255.191C297.124 255.191 294.291 258.027 294.291 261.526C294.291 265.024 297.124 267.86 300.619 267.86Z" fill="white"/>
<path d="M321.41 267.86C324.905 267.86 327.738 265.024 327.738 261.526C327.738 258.027 324.905 255.191 321.41 255.191C317.916 255.191 315.083 258.027 315.083 261.526C315.083 265.024 317.916 267.86 321.41 267.86Z" fill="white"/>
<path d="M342.202 267.86C345.697 267.86 348.53 265.024 348.53 261.526C348.53 258.027 345.697 255.191 342.202 255.191C338.707 255.191 335.874 258.027 335.874 261.526C335.874 265.024 338.707 267.86 342.202 267.86Z" fill="white"/>
<path d="M366.709 343.601H152.266C147.228 343.601 142.396 345.605 138.834 349.171C135.272 352.737 133.27 357.574 133.27 362.617V467.207C133.27 472.25 135.272 477.087 138.834 480.653C142.396 484.219 147.228 486.223 152.266 486.223H366.709C371.747 486.223 376.578 484.219 380.141 480.653C383.703 477.087 385.704 472.25 385.704 467.207V362.617C385.704 357.574 383.703 352.737 380.141 349.171C376.578 345.605 371.747 343.601 366.709 343.601H366.709ZM146.96 356.573C147.384 356.496 157.425 354.786 165.74 359.794C174.054 364.801 177.249 374.485 177.381 374.894L177.717 375.938L176.638 376.13C175.099 376.37 173.542 376.485 171.984 376.472C167.042 376.566 162.165 375.336 157.858 372.908C149.543 367.901 146.349 358.218 146.218 357.809L145.881 356.764L146.96 356.573ZM193.51 453.678H155.263C152.473 453.678 149.798 452.569 147.825 450.594C145.853 448.62 144.745 445.941 144.745 443.149C144.745 440.356 145.853 437.678 147.825 435.704C149.798 433.729 152.473 432.62 155.263 432.62H193.51C196.3 432.62 198.975 433.729 200.948 435.704C202.92 437.678 204.028 440.356 204.028 443.149C204.028 445.941 202.92 448.62 200.948 450.594C198.975 452.569 196.3 453.678 193.51 453.678V453.678ZM367.537 451.764C367.528 454.807 366.316 457.724 364.166 459.876C362.016 462.028 359.103 463.241 356.062 463.25H327.377C324.336 463.241 321.423 462.028 319.273 459.876C317.123 457.724 315.911 454.807 315.903 451.764V434.534C315.911 431.491 317.123 428.574 319.273 426.422C321.423 424.27 324.336 423.057 327.377 423.048H356.062C359.103 423.057 362.016 424.27 364.166 426.422C366.316 428.574 367.528 431.491 367.537 434.534L367.537 451.764Z" fill="#6C63FF"/>
<path d="M336.626 448.213H325.092C324.268 448.213 323.479 448.541 322.896 449.124C322.314 449.707 321.987 450.497 321.987 451.322C321.987 452.146 322.314 452.937 322.896 453.52C323.479 454.103 324.268 454.43 325.092 454.43H336.626C337.449 454.43 338.239 454.103 338.821 453.52C339.404 452.937 339.731 452.146 339.731 451.322C339.731 450.497 339.404 449.707 338.821 449.124C338.239 448.541 337.449 448.213 336.626 448.213V448.213Z" fill="#3F3D56"/>
<path d="M357.919 448.213H346.385C345.561 448.213 344.772 448.541 344.189 449.124C343.607 449.707 343.28 450.497 343.28 451.322C343.28 452.146 343.607 452.937 344.189 453.52C344.772 454.103 345.561 454.43 346.385 454.43H357.919C358.742 454.43 359.532 454.103 360.114 453.52C360.697 452.937 361.024 452.146 361.024 451.322C361.024 450.497 360.697 449.707 360.114 449.124C359.532 448.541 358.742 448.213 357.919 448.213V448.213Z" fill="#3F3D56"/>
<path d="M336.624 439.438H325.09C324.267 439.438 323.477 439.766 322.894 440.349C322.312 440.932 321.985 441.723 321.985 442.547C321.985 443.371 322.312 444.162 322.894 444.745C323.477 445.328 324.267 445.655 325.09 445.655H336.624C337.447 445.655 338.237 445.328 338.82 444.745C339.402 444.162 339.729 443.371 339.729 442.547C339.729 441.723 339.402 440.932 338.82 440.349C338.237 439.766 337.447 439.438 336.624 439.438V439.438Z" fill="#3F3D56"/>
<path d="M357.917 439.438H346.383C345.56 439.438 344.77 439.766 344.188 440.349C343.605 440.932 343.278 441.723 343.278 442.547C343.278 443.371 343.605 444.162 344.188 444.745C344.77 445.328 345.56 445.655 346.383 445.655H357.917C358.741 445.655 359.53 445.328 360.113 444.745C360.695 444.162 361.022 443.371 361.022 442.547C361.022 441.723 360.695 440.932 360.113 440.349C359.53 439.766 358.741 439.438 357.917 439.438H357.917Z" fill="#3F3D56"/>
<path d="M336.624 430.841H325.09C324.267 430.841 323.477 431.169 322.894 431.752C322.312 432.335 321.985 433.125 321.985 433.95C321.985 434.774 322.312 435.565 322.894 436.148C323.477 436.731 324.267 437.058 325.09 437.058H336.624C337.447 437.058 338.237 436.731 338.82 436.148C339.402 435.565 339.729 434.774 339.729 433.95C339.729 433.125 339.402 432.335 338.82 431.752C338.237 431.169 337.447 430.841 336.624 430.841V430.841Z" fill="#3F3D56"/>
<path d="M357.917 430.841H346.383C345.56 430.841 344.77 431.169 344.188 431.752C343.605 432.335 343.278 433.125 343.278 433.95C343.278 434.774 343.605 435.565 344.188 436.148C344.77 436.731 345.56 437.058 346.383 437.058H357.917C358.741 437.058 359.53 436.731 360.113 436.148C360.695 435.565 361.022 434.774 361.022 433.95C361.022 433.125 360.695 432.335 360.113 431.752C359.53 431.169 358.741 430.841 357.917 430.841H357.917Z" fill="#3F3D56"/>
<path d="M515.235 383H487.264V411H515.235V383Z" fill="#E6E6E6"/>
<path d="M454.298 400H500.25V446H454.298V400ZM498.252 402H456.296V444H498.252V402Z" fill="#3F3D56"/>
<path d="M28.7436 152H0.772827V180H28.7436V152Z" fill="#E6E6E6"/>
<path d="M61.7091 163H15.7571V117H61.7091V163ZM17.7551 161H59.7111V119H17.7551V161Z" fill="#3F3D56"/>
<path d="M653.167 661.417H640.92L635.094 614.129H653.169L653.167 661.417Z" fill="#FFB8B8"/>
<path d="M632.172 657.914H655.791V672.8H617.301C617.301 668.852 618.868 665.066 621.656 662.274C624.445 659.482 628.228 657.914 632.172 657.914V657.914Z" fill="#2F2E41"/>
<path d="M714.103 661.417H701.856L696.03 614.129H714.105L714.103 661.417Z" fill="#FFB8B8"/>
<path d="M693.108 657.914H716.728V672.8H678.237C678.237 668.852 679.804 665.066 682.593 662.274C685.382 659.482 689.164 657.914 693.108 657.914V657.914Z" fill="#2F2E41"/>
<path d="M591.73 492.303C590.849 491.004 590.264 489.527 590.014 487.976C589.765 486.426 589.859 484.839 590.288 483.329C590.718 481.818 591.473 480.421 592.501 479.234C593.528 478.047 594.804 477.1 596.236 476.46L637.868 361.594L658.354 372.785L610.819 482.556C611.734 485.036 611.708 487.767 610.746 490.229C609.784 492.692 607.953 494.716 605.6 495.917C603.247 497.119 600.535 497.414 597.979 496.748C595.423 496.082 593.2 494.501 591.73 492.303V492.303Z" fill="#FFB8B8"/>
<path d="M707.848 513.887C706.487 513.106 705.313 512.036 704.41 510.752C703.507 509.467 702.896 508.001 702.621 506.454C702.345 504.908 702.412 503.321 702.816 501.803C703.219 500.285 703.951 498.875 704.958 497.671L692.061 376.161L715.374 377.228L720.734 496.748C722.643 498.576 723.815 501.041 724.029 503.677C724.243 506.312 723.484 508.935 721.896 511.047C720.307 513.16 718 514.616 715.411 515.139C712.822 515.663 710.131 515.217 707.848 513.887V513.887Z" fill="#FFB8B8"/>
<path d="M670.656 340.317C684.207 340.317 695.191 329.321 695.191 315.756C695.191 302.192 684.207 291.195 670.656 291.195C657.106 291.195 646.121 302.192 646.121 315.756C646.121 329.321 657.106 340.317 670.656 340.317Z" fill="#FFB8B8"/>
<path d="M707.691 486.252H633.722L633.811 485.676C633.944 484.815 646.994 399.237 637.369 371.24C636.403 368.489 636.488 365.477 637.607 362.785C638.727 360.093 640.801 357.91 643.432 356.657H643.432C657.189 350.171 683.597 342.186 705.887 361.566C709.167 364.465 711.728 368.088 713.368 372.148C715.008 376.209 715.682 380.596 715.336 384.962L707.691 486.252Z" fill="#CCCCCC"/>
<path d="M647.928 411.884L614.627 405.121L630.236 368.091C631.171 364.505 633.488 361.435 636.679 359.557C639.871 357.678 643.677 357.143 647.262 358.069C650.847 358.996 653.919 361.308 655.803 364.499C657.688 367.689 658.231 371.498 657.314 375.089L647.928 411.884Z" fill="#CCCCCC"/>
<path d="M690.58 424.442L688.578 378.5C687.06 369.864 691.998 361.7 699.594 360.366C707.191 359.036 714.61 365.026 716.135 373.726L723.66 416.653L690.58 424.442Z" fill="#CCCCCC"/>
<path d="M705.23 480.752C717.132 526.129 718.431 583.822 715.22 646.752L699.236 644.752L670.267 524.752L654.283 646.752L636.302 645.752C630.93 579.723 625.7 523.037 634.304 485.752L705.23 480.752Z" fill="#2F2E41"/>
<path d="M686.823 334.738C682.245 339.619 673.745 336.998 673.149 330.331C673.102 329.813 673.105 329.292 673.159 328.775C673.467 325.821 675.171 323.14 674.763 320.021C674.67 319.245 674.382 318.506 673.924 317.872C670.276 312.983 661.714 320.059 658.272 315.633C656.161 312.919 658.642 308.646 657.022 305.613C654.885 301.609 648.552 303.584 644.582 301.391C640.163 298.952 640.428 292.166 643.336 288.039C646.883 283.005 653.102 280.319 659.243 279.932C665.384 279.545 671.483 281.207 677.216 283.444C683.73 285.985 690.19 289.497 694.199 295.231C699.074 302.204 699.543 311.579 697.105 319.733C695.622 324.693 690.56 330.752 686.823 334.738Z" fill="#2F2E41"/>
<path d="M739.303 674H473.975C473.79 674 473.613 673.947 473.482 673.854C473.352 673.76 473.278 673.633 473.278 673.5C473.278 673.367 473.352 673.24 473.482 673.146C473.613 673.053 473.79 673 473.975 673H739.303C739.488 673 739.665 673.053 739.795 673.146C739.926 673.24 739.999 673.367 739.999 673.5C739.999 673.633 739.926 673.76 739.795 673.854C739.665 673.947 739.488 674 739.303 674Z" fill="#3F3D56"/>
<path d="M583.434 394.748L582.91 435.587L572.759 471.993L564.644 468.963L568.247 435.593L567.774 390.436L583.434 394.748Z" fill="#FFB6B6"/>
<path d="M572.724 477.863C573.676 472.628 571.931 467.926 568.826 467.36C565.721 466.794 562.432 470.579 561.48 475.814C560.528 481.049 562.273 485.751 565.378 486.317C568.483 486.883 571.772 483.098 572.724 477.863Z" fill="#FFB6B6"/>
<path d="M571.116 346.122C571.116 346.122 588.505 346.361 588.49 355.608C588.482 360.829 587.362 408.232 584.245 437.028C581.841 459.235 577.252 465.028 577.252 465.028L566.264 440.028L571.116 346.122V346.122Z" fill="#E6E6E6"/>
<path d="M570.669 429.559H511.943C516.865 418.564 519.891 408.092 515.16 399.763L570.669 396.541C567.895 407.786 567.556 418.821 570.669 429.559Z" fill="#FFB6B6"/>
<path d="M563.429 332.117L540.099 330.506L530.445 342.586L525.551 343.476C518.215 344.812 512.991 351.365 513.319 358.822L515.223 402.135L570.985 406.205L584.345 349.803L568.255 343.391L563.429 332.117V332.117Z" fill="#E6E6E6"/>
<path d="M421.155 345.182C422.811 346.673 423.992 348.414 424.616 350.103L441.28 363.306L434.772 371.059L418.569 356.832C416.826 356.388 414.971 355.396 413.316 353.905C409.535 350.5 408.225 345.787 410.389 343.378C412.554 340.969 417.374 341.777 421.155 345.182L421.155 345.182Z" fill="#FFB6B6"/>
<path d="M538.969 356.297V356.297L475.119 399.457L429.351 367.573L436.222 355.113L472.244 376.069L505.465 350.535C517.294 339.412 532.12 341.568 538.969 356.297H538.969Z" fill="#E6E6E6"/>
<path d="M550.38 326.889C559.939 326.889 567.688 319.132 567.688 309.563C567.688 299.994 559.939 292.237 550.38 292.237C540.821 292.237 533.072 299.994 533.072 309.563C533.072 319.132 540.821 326.889 550.38 326.889Z" fill="#FFB6B6"/>
<path d="M573.906 305.306V308.666L554.386 303.166L539.751 306.236C539.581 304.006 538.922 301.816 537.823 299.876C538.588 302.988 538.673 305.395 537.863 306.636L535.895 307.046C535.576 306.176 534.956 305.416 534.147 304.956C534.067 304.906 533.967 304.866 533.877 304.896C533.738 304.946 533.728 305.126 533.728 305.266C533.748 306.006 533.768 306.746 533.798 307.486L528.143 308.666V305.306C522.719 293.088 537.016 282.516 551.029 282.406C557.353 282.357 563.067 284.966 567.213 289.106C571.348 293.256 573.906 298.976 573.906 305.306V305.306Z" fill="#2F2E41"/>
<path d="M584.886 344.705L583.412 344.582C583.517 344.1 583.622 343.623 583.718 343.141C584.535 339.091 582.737 333.936 582.605 330.045C581.911 334.156 583.098 339.213 581.87 343.116C581.733 343.55 576.399 346.349 576.253 346.776C570.35 344.615 564.203 337.71 557.241 341.743C553.124 344.128 548.427 343.083 543.753 341.991C542.596 341.721 542.435 336.001 541.29 335.776C539.239 335.374 536.227 340.573 534.297 340.776L542.289 309.776C542.289 292.912 540.728 275.219 562.068 281.182C567.435 282.682 572.747 283.857 576.708 288.292C580.67 292.732 583.49 298.938 584.489 306.005C585.092 310.268 588.852 324.744 584.886 344.705V344.705Z" fill="#2F2E41"/>
<path d="M571.106 656.441L561.579 656.666L556.269 613.822L570.328 613.489L571.106 656.441Z" fill="#FFB7B7"/>
<path d="M538.421 676.337C538.421 677.948 539.564 679.254 540.972 679.254H559.882C559.882 679.254 561.743 671.766 569.33 668.544L569.853 679.254H579.608L578.426 662.032C578.426 662.032 581.036 652.818 575.616 648.109C570.197 643.399 574.586 644.054 574.586 644.054L572.455 633.395L557.714 635.131L557.606 651.863L550.452 668.471L539.96 673.66C539.026 674.121 538.422 675.174 538.422 676.337H538.421H538.421Z" fill="#2F2E41"/>
<path d="M542.123 649.459L532.965 652.096L516.968 612.004L530.482 608.11L542.123 649.459Z" fill="#FFB7B7"/>
<path d="M515.551 677.006C515.96 678.565 517.396 679.538 518.758 679.18L537.049 674.377C537.049 674.377 536.951 666.661 543.472 661.617L546.694 671.844L556.129 669.366L550.621 653.008C550.621 653.008 550.809 643.433 544.373 640.254C537.937 637.075 542.349 636.594 542.349 636.594L537.585 626.825L523.767 632.248L527.904 648.46L525.195 666.342L516.361 674.026C515.575 674.71 515.257 675.881 515.552 677.006L515.551 677.006L515.551 677.006Z" fill="#2F2E41"/>
<path d="M565.265 427.028L571.258 429.028C580.63 446.354 584.603 469.362 584.076 497.106L573.43 621.718H556.011L543.264 482.896L520.788 535.001L537.233 621.718L520.788 623.396L487.665 533.224L510.733 428.423L565.265 427.028V427.028Z" fill="#2F2E41"/>
</g>
<defs>
<clipPath id="clip0_3_46">
<rect width="855.227" height="674" fill="white" transform="translate(0.772827)"/>
</clipPath>
</defs>
</svg>
